<svg xmlns="http://www.w3.org/2000/svg" viewBox="0 0 219 99" width="219" height="99"><title>Nesa Komerc Logo-ai</title><defs><linearGradient id="g1" x1="126" y1="22" x2="187" y2="-27" gradientUnits="userSpaceOnUse"><stop offset="0" stop-color="#a22018"></stop><stop offset=".4" stop-color="#ff301b"></stop><stop offset="1" stop-color="#ffa82e"></stop></linearGradient><linearGradient id="g2" x1="141.9" y1="45.6" x2="202.9" y2="-3.4" gradientUnits="userSpaceOnUse"><stop offset="0" stop-color="#a22018"></stop><stop offset=".4" stop-color="#ff301b"></stop><stop offset="1" stop-color="#ffa82e"></stop></linearGradient><linearGradient id="g3" x1="149.1" y1="53.5" x2="208.6" y2="5.7" gradientUnits="userSpaceOnUse"><stop offset="0" stop-color="#a22018"></stop><stop offset=".4" stop-color="#ff301b"></stop><stop offset="1" stop-color="#ffa82e"></stop></linearGradient></defs><style>		.s0 { fill: #ed2c19 } 		.s1 { fill: url(#g1) } 		.s2 { fill: url(#g2) } 		.s3 { fill: url(#g3) } 		.s4 { fill: #ff311b } 	</style><g id="Layer 1"><g id="&lt;Group&gt;"><g id="&lt;Group&gt;"><path id="&lt;Compound Path&gt;" fill-rule="evenodd" class="s0" d="m83.3 84.6c-1.2 3.4-3.4 6.5-6.4 9.1-4.1 3.4-8.7 5.2-13.9 5.2-5.3 0-8.9-1.7-10.6-5.2-1.4-2.6-1.5-5.8-0.2-9.5 1.4-4 4.1-7.4 7.9-10.1 3.9-2.7 7.9-3.9 12.1-3.8 4.8-0.1 8.2 1.2 10.2 3.9 2 2.8 2.3 6.3 0.9 10.4zm-8.8-0.1c1.2-3.4 1.8-5.9 1.7-7.6q-0.1-2.3-1.2-3.2-1.1-1-2.9-1c-2.4 0-4.7 1.2-6.8 3.5-1.7 2-3.2 4.9-4.5 8.6-1.5 4.3-1.9 7.5-1 9.5 0.6 1.3 1.8 2 3.6 2q2-0.1 3.7-1 2.1-1.1 4-3.8c1.3-1.7 2.4-4.1 3.4-7z"></path><path id="&lt;Path&gt;" class="s0" d="m119.8 96.6c0.1 0.2 0.1 0.4 0 0.6l-0.2 0.7c-0.1 0.2-0.3 0.4-0.6 0.4h-14.7c-0.2 0-0.4-0.1-0.5-0.3-0.1-0.1-0.1-0.3 0-0.5l0.2-0.7c0.1-0.3 0.3-0.4 0.6-0.4h0.9q1.1 0 1.9-0.4 0.5-0.2 0.9-0.7c0.1-0.2 0.4-0.6 1-2.3l5.7-16.4-17.1 21.5q-0.1 0.2-0.4 0.2h-0.5c-0.3 0-0.6-0.2-0.6-0.5l-2.4-21.4-5.6 16.2c-0.6 1.6-0.7 2.1-0.7 2.2q-0.1 0.7 0.4 1.1c0.2 0.2 0.8 0.5 2.3 0.5 0.2 0 0.3 0.1 0.4 0.2 0.1 0.2 0.2 0.4 0.1 0.6l-0.2 0.7c-0.1 0.2-0.3 0.4-0.6 0.4h-9.6c-0.2 0-0.4-0.1-0.5-0.3-0.1-0.1-0.2-0.3-0.1-0.5l0.3-0.7c0-0.3 0.3-0.4 0.5-0.4h0.3q0.9 0 1.7-0.3 0.8-0.2 1.3-0.7 0.5-0.4 1-1.2c0-0.1 0.1-0.3 0.7-1.9l5.8-16.7c0.6-1.8 0.6-2.2 0.6-2.3q0-0.2-0.4-0.4c-0.2-0.2-0.6-0.3-1.4-0.3h-0.9c-0.2 0-0.4-0.1-0.5-0.3q-0.1-0.2-0.1-0.5l0.3-0.7c0.1-0.2 0.3-0.4 0.5-0.4h11.6c0.3 0 0.5 0.2 0.6 0.5l1.7 16 12.8-16.3q0.2-0.2 0.4-0.2h11.5c0.2 0 0.4 0.1 0.5 0.2q0.2 0.3 0.1 0.6l-0.3 0.7c-0.1 0.2-0.3 0.4-0.5 0.4h-0.9q-1.2 0-1.9 0.3-0.5 0.3-1 0.8c-0.1 0.1-0.4 0.6-1 2.3l-6 17.4c-0.6 1.8-0.6 2.2-0.6 2.2 0 0.1 0 0.3 0.3 0.5 0.2 0.1 0.6 0.3 1.5 0.3h0.9q0.3 0 0.5 0.2z"></path><path id="&lt;Path&gt;" class="s0" d="m151.4 89.6l-4.2 8.4c-0.1 0.2-0.3 0.3-0.5 0.3h-24.4q-0.3 0-0.4-0.3c-0.2-0.1-0.2-0.3-0.1-0.5l0.2-0.7c0.1-0.3 0.3-0.4 0.6-0.4h0.9q1.1 0 1.9-0.4 0.5-0.2 0.9-0.7c0.1-0.2 0.4-0.6 1-2.3l6.1-17.4c0.5-1.6 0.6-2 0.6-2.1 0-0.3-0.1-0.4-0.2-0.5q-0.5-0.4-1.6-0.4h-0.9c-0.2 0-0.4-0.1-0.5-0.3q-0.2-0.2-0.1-0.5l0.3-0.7c0-0.2 0.3-0.4 0.5-0.4h23.6c0.2 0 0.4 0.1 0.5 0.2 0.1 0.2 0.1 0.4 0.1 0.6l-2.7 7.8c-0.1 0.2-0.3 0.4-0.6 0.4h-0.8q-0.3 0-0.4-0.2-0.2-0.2-0.2-0.5c0.3-2.2 0.1-3.3-0.2-3.7q-0.5-1.1-2.1-1.6c-0.4-0.1-1.5-0.3-4-0.3h-2.5l-3.4 9.6c1.6-0.1 2.8-0.6 3.8-1.5q1.7-1.5 3-4.4c0.1-0.2 0.3-0.4 0.6-0.4h0.7q0.3 0 0.5 0.3c0.1 0.1 0.2 0.3 0.1 0.5l-4.8 13.8c-0.1 0.3-0.3 0.4-0.6 0.4h-0.8q-0.2 0-0.4-0.2-0.2-0.2-0.1-0.5 0.5-2.1 0.2-3.4-0.2-1.2-0.9-1.6c-0.3-0.2-0.9-0.4-2.2-0.4l-2.4 7c-0.7 2-0.7 2.4-0.7 2.5 0 0.1 0 0.2 0.2 0.3 0 0.1 0.3 0.2 1.3 0.2h1.7q3.7 0 6.6-1.6c1.9-1.1 3.6-2.8 5-5 0.1-0.2 0.3-0.3 0.5-0.3h0.8c0.2 0 0.4 0.1 0.5 0.3 0.1 0.2 0.1 0.4 0 0.6z"></path><path id="&lt;Compound Path&gt;" fill-rule="evenodd" class="s0" d="m183.8 74.1q0.9 2 0 4.7-1.1 3.1-4.1 5.1-1.7 1.1-4.2 1.7l3.4 8.3c0.6 1.5 0.9 1.9 1 2q0.5 0.4 1.4 0.5 0.3 0 0.4 0.2 0.2 0.3 0.1 0.6l-0.2 0.7c-0.1 0.2-0.3 0.4-0.6 0.4h-8.9c-0.2 0-0.4-0.2-0.5-0.4l-4.8-11.7h-1l-2.4 7c-0.7 2-0.7 2.4-0.7 2.5 0 0.1 0.1 0.3 0.4 0.4 0.2 0.1 0.6 0.3 2.3 0.3q0.3 0 0.4 0.2c0.1 0.2 0.2 0.4 0.1 0.6l-0.2 0.7c-0.1 0.2-0.3 0.4-0.6 0.4h-14.4q-0.3 0-0.5-0.3c-0.1-0.1-0.1-0.3-0.1-0.5l0.3-0.7c0.1-0.3 0.3-0.4 0.5-0.4 1.5 0 2.2-0.2 2.6-0.3q0.7-0.3 1-0.7c0.2-0.2 0.5-0.8 1.1-2.5l6-17.2c0.7-1.9 0.6-2.3 0.6-2.4 0-0.1 0-0.3-0.4-0.5-0.1 0-0.6-0.2-2.2-0.2-0.2 0-0.4-0.1-0.5-0.3-0.1-0.1-0.1-0.3 0-0.5l0.2-0.7c0.1-0.2 0.3-0.4 0.6-0.4h13.1c3.5 0 5.9 0.2 7.4 0.7q2.4 0.7 3.4 2.7zm-17.1 9.6h0.3q2.8 0 4.4-0.5 1.4-0.4 2.6-1.6 1.2-1.2 1.9-3.2 0.9-2.7 0.1-3.9-0.8-1.2-3.9-1.2h-1.8z"></path><path id="&lt;Path&gt;" class="s0" d="m218.9 70.3c0.2 0.2 0.2 0.4 0.1 0.6l-3.2 9.1c0 0.3-0.3 0.4-0.5 0.4h-0.8q-0.3 0-0.5-0.2-0.1-0.2-0.1-0.4 0.3-3.3-1.4-5.1c-1.1-1.1-2.6-1.7-4.5-1.7q-2.5 0-5.1 1.4-2.6 1.3-4.3 3.5c-1.5 1.9-2.7 4.1-3.5 6.4q-1.2 3.5-1.3 6.3 0 2.6 1.3 4 1.4 1.3 4.4 1.3 2.5 0 5-1.1c1.7-0.7 3.6-1.9 5.8-3.6 0.2-0.2 0.5-0.2 0.7-0.1 0.3 0.2 0.3 0.5 0.3 0.7l-0.8 2.3q-0.1 0.2-0.2 0.3c-2.2 1.5-4.3 2.7-6.3 3.4-2 0.7-4.2 1.1-6.6 1.1-3.1 0-5.7-0.6-7.7-1.8-2.1-1.2-3.4-3-4-5.2-0.5-2.2-0.4-4.6 0.5-7.1 0.9-2.6 2.5-5.1 4.7-7.4 2.3-2.3 4.9-4.1 7.7-5.4 5.1-2.2 10-2.6 14.6-0.7 1.5 0.7 1.9 0.7 2 0.7q0.5 0 1-0.4 0.5-0.3 0.9-1.2c0.1-0.2 0.3-0.3 0.6-0.3h0.8q0.3 0 0.4 0.2z"></path><path id="&lt;Path&gt;" class="s0" d="m46.9 96q0.1 0.2 0 0.5l-0.2 0.7c-0.1 0.2-0.3 0.4-0.6 0.4h-14.8c-0.2 0-0.4-0.1-0.5-0.2-0.1-0.2-0.1-0.4 0-0.6l0.2-0.7c0.1-0.2 0.3-0.4 0.5-0.4 1.2-0.1 1.6-0.2 1.7-0.3q0.4-0.2 0.4-0.4c0.1-0.2 0.2-0.8-0.8-2.6l-3.5-7.1-0.7 0.4-2.4 7c-0.7 1.8-0.7 2.2-0.6 2.3 0 0 0 0.2 0.3 0.4 0.2 0.1 0.7 0.3 1.9 0.3 0.2 0 0.4 0.1 0.5 0.3q0.1 0.2 0.1 0.5l-0.3 0.7c-0.1 0.2-0.3 0.4-0.6 0.4h-14.3c-0.2 0-0.4-0.1-0.5-0.2-0.1-0.2-0.1-0.4-0.1-0.6l0.3-0.7c0.1-0.2 0.3-0.4 0.5-0.4h1q1.1 0 1.9-0.4 0.5-0.2 0.9-0.7c0.1-0.1 0.4-0.6 1-2.3l6.1-17.4c0.4-1 3-9.4 6-18.7l-10.6-5.6-5.7 17.1q0 0 0 0c-0.6 1.8-0.6 2.2-0.6 2.3 0 0.1 0 0.2 0.3 0.4 0.2 0.1 0.7 0.3 1.9 0.3q0.3 0 0.5 0.3 0.1 0.2 0.1 0.5l-0.3 0.7c-0.1 0.3-0.3 0.4-0.6 0.4h-14.3q-0.3 0-0.5-0.2-0.2-0.3-0.1-0.6l0.3-0.7c0.1-0.2 0.3-0.4 0.6-0.4h0.9q1.1 0 1.9-0.3 0.5-0.3 0.9-0.8c0.1-0.1 0.4-0.6 1-2.3l5.8-17.4c0.1-0.3 0.5-1.5 1-3l-5.5-2.9c-0.5-0.3-0.8-1-0.5-1.6 0.3-0.5 1.1-0.8 1.6-0.5l5.1 2.7c1.9-5.8 4.7-14.4 5-15.5-0.1 0-0.1-0.2-0.4-0.3-0.2-0.2-0.6-0.3-1.4-0.3h-1c-0.2 0-0.3-0.1-0.5-0.3-0.1-0.1-0.1-0.3 0-0.5l0.2-0.7c0.1-0.3 0.3-0.4 0.6-0.4h14.1c0.2 0 0.4 0.1 0.5 0.2 0.1 0.2 0.2 0.4 0.1 0.6l-0.3 0.7c0 0.2-0.3 0.4-0.5 0.4q-1.3 0-2.1 0.3-0.5 0.2-1 0.8c-0.3 0.5-3.9 11.5-5.7 16.7q-0.4 1.1-0.7 2l10.6 5.6c3.6-11.5 7.3-23.6 7.6-24.8 0-0.1-0.1-0.2-0.3-0.3-0.2-0.2-0.6-0.3-1.5-0.3h-0.9q-0.3 0-0.5-0.3c-0.1-0.1-0.1-0.3-0.1-0.5l0.3-0.7c0.1-0.3 0.3-0.4 0.6-0.4h14.1c0.2 0 0.4 0.1 0.5 0.2 0.1 0.2 0.1 0.4 0.1 0.6l-0.3 0.7c-0.1 0.2-0.3 0.4-0.5 0.4q-1.4 0-2.1 0.3-0.5 0.2-1 0.7c-0.4 1.2-4.8 14.8-8.5 26.4h77.4c0.7 0 1.2 0.5 1.2 1.2 0 0.7-0.5 1.2-1.2 1.2h-78.2q-0.8 2.6-1.5 4.9c-2.2 6.8-3.8 11.7-3.9 12.1l-2.3 6.4 12.3-9.1c1-0.7 2.2-1.6 2.5-2.1 0-0.1 0.1-0.2-0.3-0.4 0 0-0.3-0.1-1.9-0.2q-0.3 0-0.5-0.2-0.1-0.3 0-0.6l0.2-0.7c0.1-0.2 0.3-0.4 0.6-0.4h11.1c0.2 0 0.3 0.1 0.5 0.3q0.1 0.2 0 0.5l-0.2 0.7c-0.1 0.2-0.3 0.4-0.5 0.4q-1.5 0.1-2.4 0.5-0.9 0.3-4.8 2.6l-10 7.9 5.7 11.2q1.2 2.3 2.3 3.1 0.7 0.5 1.8 0.5c0.2 0 0.4 0.1 0.5 0.3z"></path><path id="&lt;Path&gt;" class="s0" d="m49.3 47.9q1 0 1.7-0.3 0.5-0.2 0.9-0.7 0.3-0.4 0.8-2l5-14q0.5-1.4 0.5-1.7 0-0.5-0.3-0.8-0.5-0.4-1.5-0.4h-0.8q0 0-0.1 0 0-0.1 0-0.1l0.2-0.6q0-0.1 0.1-0.1h19.2q0.1 0 0.1 0 0.1 0.1 0.1 0.1l-2.3 6.4q0 0-0.1 0h-0.6q-0.1 0-0.1 0 0 0 0-0.1 0.3-2.3-0.2-3.2-0.5-1-2-1.5-0.8-0.2-3.4-0.2h-2.3l-2.9 8.4h0.3q2.1 0 3.5-1.2 1.4-1.3 2.5-3.8 0.1 0 0.1 0h0.7q0 0 0.1 0 0 0.1 0 0.1l-3.9 11.2q-0.1 0.1-0.1 0.1h-0.7q0 0-0.1-0.1 0 0 0-0.1 0.4-1.8 0.2-2.9-0.2-1.1-0.9-1.5-0.7-0.4-2.2-0.4l-2.1 5.9c-0.5 1.5-0.6 2-0.6 2.2q0 0.3 0.3 0.5 0.3 0.2 1.3 0.2h1.4q3.1 0 5.5-1.3 2.4-1.4 4.3-4.2 0-0.1 0.1-0.1h0.6q0.1 0 0.1 0.1 0 0 0 0.1l-3.4 6.8q0 0-0.1 0.1h-19.9q0-0.1-0.1-0.1 0 0 0-0.1l0.2-0.6q0.1-0.1 0.1-0.1z"></path><path id="&lt;Path&gt;" class="s0" d="m86.2 26l-1.3-6q-0.1-0.1 0-0.1 0-0.1 0.1-0.1h1.3q0 0 0 0.1l2.9 3.1 5.2-3.1q0 0 0 0h1.4q0.1 0 0.1 0.1 0 0.1 0 0.1l-5.7 5.9q0 0.1-0.1 0.1h-3.8q-0.1 0-0.1-0.1z"></path><path id="&lt;Path&gt;" class="s0" d="m75.1 41q0 0 0.1 0h0.7q0 0 0 0 0.1 0 0.1 0.1-0.5 3.3 1 5.1 1.5 1.7 3.9 1.7 1.8 0 3.3-0.9 1.4-1 1.8-2.2 0.3-0.7 0.1-1.4-0.2-0.7-0.8-1.3-0.7-0.6-2.5-1.6-2.7-1.5-3.7-2.5-1-1-1.3-2.3-0.4-1.3 0.2-2.8 0.9-2.6 3.6-4.4 2.6-1.8 5.7-1.8 1.2 0 2.2 0.3 0.7 0.1 1.7 0.7 0.9 0.5 1.3 0.5 0.4 0 0.8-0.3 0.3-0.2 0.8-1.1 0.1-0.1 0.1-0.1h0.5q0.1 0 0.1 0.1 0.1 0 0 0.1l-2.3 7.1q0 0-0.1 0h-0.7q0 0-0.1 0 0 0 0-0.1 0.4-2.6-0.9-4.2-1.3-1.6-3.5-1.6-1.7 0-2.9 0.9-1.3 0.8-1.7 1.9-0.2 0.6-0.1 1.2 0.2 0.7 1 1.4 0.7 0.5 3.1 1.8 3.4 1.8 4.2 3.5 0.9 1.7 0.1 3.8-0.9 2.8-3.9 4.7-2.9 1.9-6.4 2-1.1 0-2-0.3-1-0.2-2.2-0.7-0.7-0.3-1.2-0.3-0.4 0-1 0.3-0.6 0.3-1.1 0.9 0 0-0.1 0h-0.6q-0.1 0-0.1 0 0-0.1 0-0.1z"></path><path id="&lt;Compound Path&gt;" fill-rule="evenodd" class="s0" d="m95.9 43.8l14.2-17q0 0 0.1-0.1h0.3q0.1 0.1 0.1 0.2l2.2 17.4q0.3 2.5 0.8 3.1 0.4 0.5 1.3 0.5 0.1 0 0.1 0.1 0.1 0 0 0.1l-0.2 0.6q0 0-0.1 0.1h-11.1q0-0.1-0.1-0.1 0 0 0-0.1l0.2-0.6q0-0.1 0.1-0.1h0.5q1.3 0 1.9-0.3 0.4-0.2 0.6-0.7 0.1-0.2 0.1-0.5c0-0.1 0-0.3-0.1-1.2l-0.3-2.5h-7.9l-1.7 2q-0.8 1-1 1.7-0.3 0.8 0.2 1.2c0.2 0.1 0.7 0.2 2.1 0.3q0 0 0.1 0.1 0 0 0 0.1l-0.2 0.6q0 0-0.1 0.1h-7.7q0-0.1-0.1-0.1 0 0 0-0.1l0.2-0.6q0.1-0.1 0.1-0.1 1.3-0.1 2.3-0.9 1.1-0.8 3.1-3.2zm10.4-2.5l-0.8-7-5.7 7z"></path></g><g id="&lt;Group&gt;"><path id="&lt;Path&gt;" class="s1" d="m148.4 50.7c-5.3-12.8-7.6-40.5 15-43.4 5.8-0.3 12.4-0.3 21.6-0.2 8.3 0.2 20.5 1.8 25.2-7.4-0.9 8.1 1.5 19.7-7.8 24.7-7.1 3.8-34.5 0.6-41.2 2.8-11.7 3.8-11.5 17-12.8 23.5z"></path><path id="&lt;Path&gt;" class="s2" d="m194.6 42.5c-3.6 1.1-21.9 0.1-28.7 0.7-3.8 0.4-7.7 1.4-11.8 3.7 0.4-4.8 1.1-6.9 3.3-9.6 3.3-4.2 6.4-3.3 9.3-3.4 0.2 0 24.1 0.3 26-0.1q0.2 0 0.3 0 0.3-0.1 0.6-0.1 0.1-0.1 0.3-0.1 0.3-0.1 0.5-0.2 0.2 0 0.4-0.1 0.2-0.1 0.5-0.2 0.2 0 0.3-0.1 0.3-0.1 0.5-0.2 0.2-0.1 0.4-0.1 0.2-0.1 0.5-0.2 0.1-0.1 0.3-0.2 0.2-0.1 0.5-0.3 0.2-0.1 0.3-0.2 0.3-0.1 0.5-0.2 0.2-0.2 0.3-0.3 0.3-0.1 0.5-0.3 0.2-0.1 0.3-0.2 0.3-0.2 0.5-0.4 0.2-0.1 0.3-0.2 0.2-0.2 0.5-0.4 0.1-0.2 0.3-0.3 0.2-0.2 0.4-0.5 0.2-0.1 0.3-0.3 0.3-0.2 0.5-0.5 0.1-0.1 0.3-0.3 0.2-0.3 0.4-0.6 0.2-0.1 0.3-0.3 0.3-0.5 0.7-1c-0.6 4.3-0.2 9.4-3.4 12.8-1.7 2-3.7 3-6.2 3.7z"></path><path id="&lt;Path&gt;" class="s3" d="m186.3 60.6c-6.5 1.1-10.6 0.7-16-0.8-3.8-1.1-13.8-3.9-19.1-5.7 3.5-2.4 6.8-3.6 10.1-4.2 4.8-0.9 14.8-1 14.9-1q9.7 0 16.1 0c3.2 0 6.3-2.9 7.5-5.3 0.3 1.5 0.1 3.2-0.4 6-1.2 4.9-6.6 10-13.1 11z"></path></g><g id="&lt;Group&gt;"><path id="&lt;Compound Path&gt;" fill-rule="evenodd" class="s4" d="m134.5 25q0 1.5-0.5 2.7-0.6 1.3-1.5 2.2-0.9 1-2.2 1.5-1.3 0.5-2.8 0.5-1.5 0-2.8-0.5-1.3-0.5-2.2-1.5-0.9-0.9-1.5-2.2-0.5-1.2-0.5-2.7 0-1.5 0.5-2.8 0.6-1.3 1.5-2.3 0.9-0.9 2.2-1.4 1.3-0.6 2.8-0.6 1.5 0 2.8 0.6 1.3 0.5 2.2 1.4 0.9 1 1.5 2.3 0.5 1.3 0.5 2.8zm-1.3 0q0-1.3-0.5-2.3-0.4-1.1-1.2-1.9-0.7-0.7-1.8-1.2-1-0.4-2.2-0.4-1.2 0-2.2 0.4-1.1 0.5-1.8 1.2-0.8 0.8-1.2 1.9-0.5 1-0.5 2.3 0 1.2 0.5 2.2 0.4 1.1 1.2 1.8 0.7 0.8 1.8 1.2 1 0.5 2.2 0.5 1.2 0 2.2-0.5 1.1-0.4 1.8-1.2 0.8-0.7 1.2-1.8 0.5-1 0.5-2.2zm-5.5 0.6h-1.4v3.4h-1.4v-8.1h3.3q1 0 1.7 0.6 0.7 0.7 0.7 1.7 0 0.8-0.4 1.4-0.4 0.6-1.1 0.8l1.9 3.6h-1.6zm-1.4-3.5v2.3h1.7q0.6 0 0.9-0.3 0.4-0.3 0.4-0.9 0-1.1-1.3-1.1z"></path></g></g></g></svg>